<svg id="Layer_1" data-name="Layer 1" xmlns="http://www.w3.org/2000/svg" viewBox="0 0 1000 400"><defs><style>.cls-1,.cls-2,.cls-5{fill:none;stroke:#343838;}.cls-1,.cls-5{stroke-linecap:round;}.cls-1,.cls-2{stroke-miterlimit:10;stroke-width:27.71px;}.cls-3{fill:#343838;}.cls-4{fill:#00dffc;}.cls-5{stroke-linejoin:round;stroke-width:6.9px;}</style></defs><title>Artboard 1</title><line class="cls-1" x1="310.33" y1="368.63" x2="708.42" y2="368.63"/><path class="cls-2" d="M729.12,244.37v34.52a23,23,0,0,1-23,23H312.64a23,23,0,0,1-23-23V244.37"/><path class="cls-2" d="M289.63,87.9V53.38a23,23,0,0,1,23-23H706.11a23,23,0,0,1,23,23V87.9"/><path class="cls-3" d="M36.88,217.22A33,33,0,0,1,28,216.15V203.64a29.47,29.47,0,0,0,7.08,1q4.95,0,7.08-3.08t2.13-9.63V125.42h15V191.8q0,12.42-5.68,18.92T36.88,217.22Z"/><path class="cls-3" d="M114.46,196.36l-2-6.94h-.78a15.62,15.62,0,0,1-6.74,5.85A23.06,23.06,0,0,1,95,197.33q-9.56,0-14.41-5.12t-4.85-14.72V142.11h14.8V173.8q0,5.87,2.09,8.8t6.65,2.93q6.21,0,9-4.15T111,167.63V142.11h14.8v54.25Z"/><path class="cls-3" d="M175.79,196.36,172.93,189h-.39a21.83,21.83,0,0,1-7.69,6.53,24.83,24.83,0,0,1-10.31,1.82q-7.81,0-12.3-4.46t-4.49-12.71q0-8.63,6-12.74T162,162.88l9.41-.29v-2.38q0-8.25-8.44-8.25-6.5,0-15.28,3.93l-4.9-10a44.1,44.1,0,0,1,20.77-4.9q10.92,0,16.74,4.75t5.82,14.46v36.15Zm-4.37-25.13-5.73.19q-6.45.2-9.61,2.33a7.32,7.32,0,0,0-3.15,6.5q0,6.26,7.18,6.26a11.37,11.37,0,0,0,8.22-3,10.39,10.39,0,0,0,3.08-7.86Z"/><path class="cls-3" d="M251.43,196.36h-14.8V164.68q0-5.87-2.09-8.81t-6.65-2.94q-6.21,0-9,4.15t-2.77,13.76v25.52h-14.8V142.11h11.31l2,6.94h.82a15.66,15.66,0,0,1,6.82-5.94,23.21,23.21,0,0,1,9.87-2q9.46,0,14.36,5.12t4.9,14.78Z"/><path class="cls-4" d="M325,128.87q-13.34,0-21,8.54t-7.67,23.39q0,15.18,7.23,23.58t20.67,8.4a56,56,0,0,0,16.4-2.28v4.36q-7,2.48-17.56,2.48-14.94,0-23.53-9.66t-8.59-27a42.29,42.29,0,0,1,4.1-19.07,29.67,29.67,0,0,1,11.79-12.74,34.83,34.83,0,0,1,17.88-4.49,42.93,42.93,0,0,1,18.58,3.88l-2,4.46A36,36,0,0,0,325,128.87Z"/><path class="cls-4" d="M387.29,196.36,386.08,188h-.39a25,25,0,0,1-8.18,7.2,21.82,21.82,0,0,1-9.92,2.11q-7.76,0-12.08-4t-4.32-11a13.59,13.59,0,0,1,6.43-12q6.43-4.27,18.61-4.51l10-.29v-3.49q0-7.52-3.06-11.35t-9.85-3.83a32.94,32.94,0,0,0-15.19,4.08l-1.8-4.17a40.19,40.19,0,0,1,17.18-4.08q8.68,0,13,4.51t4.29,14.07v35.08ZM367.88,193q8.44,0,13.32-4.83t4.88-13.42v-5.19l-9.22.39q-11.11.53-15.84,3.47t-4.73,9.15a9.83,9.83,0,0,0,3,7.69Q362.35,193,367.88,193Z"/><path class="cls-4" d="M473.8,196.36V161.77q0-7.72-3-11.26T461.57,147q-8.1,0-12,4.46t-3.88,14v30.91h-4.9V160.31q0-13.34-12.23-13.34-8.3,0-12.08,4.83t-3.78,15.45v29.11h-4.8V143.62h4l1,7.23h.29a15.13,15.13,0,0,1,6.21-6.09,18.49,18.49,0,0,1,8.88-2.16q12.47,0,16,9.36h.19a18,18,0,0,1,6.91-6.94,19.91,19.91,0,0,1,9.87-2.43q8.64,0,13,4.61t4.32,14.65v34.5Z"/><path class="cls-4" d="M516.93,197.33q-11.5,0-17.93-7.08t-6.43-19.85q0-12.61,6.21-20.21t16.74-7.59q9.32,0,14.7,6.5t5.39,17.66v3.88h-38q.1,10.87,5.07,16.59T516.93,193a44.07,44.07,0,0,0,7.93-.63,48,48,0,0,0,8.66-2.72V194a38.72,38.72,0,0,1-8.25,2.64A45.82,45.82,0,0,1,516.93,197.33Zm-1.41-50.46q-7.62,0-12.23,5t-5.39,14.48h32.61q0-9.17-4-14.34A13.13,13.13,0,0,0,515.53,146.87Z"/><path class="cls-4" d="M543.13,220.23a15.82,15.82,0,0,1-6.55-1.21v-4.18a22.47,22.47,0,0,0,6.26,1q7.33,0,7.33-8.54V143.62H555v63q0,6.55-3.08,10.09T543.13,220.23ZM549.49,129q0-4.66,3.06-4.66a2.72,2.72,0,0,1,2.35,1.21,6,6,0,0,1,.85,3.45,6.1,6.1,0,0,1-.85,3.44,2.68,2.68,0,0,1-2.35,1.26Q549.49,133.67,549.49,129Z"/><path class="cls-4" d="M616.25,169.92q0,12.91-6.26,20.16t-17.27,7.25A22.39,22.39,0,0,1,580.49,194a21.42,21.42,0,0,1-8.1-9.61,35,35,0,0,1-2.81-14.46q0-12.91,6.26-20.11T593,142.6q10.87,0,17.06,7.3T616.25,169.92Zm-41.63,0q0,10.87,4.78,17T592.92,193q8.73,0,13.51-6.09t4.78-17q0-10.92-4.83-16.93t-13.56-6q-8.73,0-13.46,6T574.62,169.92Z"/><path class="cls-4" d="M692,171.32H663.22l-9.9,25h-5.48l28.53-71.23h3.15l27.95,71.23h-5.58Zm-27-4.46h25.37l-9.65-25.57q-1.21-3-2.91-8.35a78.55,78.55,0,0,1-2.86,8.44Z"/><path class="cls-4" d="M721.1,196.36h-4.8v-75.5h4.8Z"/><path class="cls-4" d="M770.79,196.36,769.57,188h-.39a25,25,0,0,1-8.17,7.2,21.82,21.82,0,0,1-9.92,2.11q-7.76,0-12.08-4t-4.32-11a13.59,13.59,0,0,1,6.43-12q6.43-4.27,18.61-4.51l10-.29v-3.49q0-7.52-3.06-11.35t-9.85-3.83a33,33,0,0,0-15.19,4.08l-1.8-4.17a40.2,40.2,0,0,1,17.18-4.08q8.68,0,13,4.51t4.3,14.07v35.08ZM751.38,193q8.44,0,13.32-4.83t4.88-13.42v-5.19l-9.22.39q-11.11.53-15.84,3.47t-4.73,9.15a9.83,9.83,0,0,0,3,7.69Q745.85,193,751.38,193Z"/><path class="cls-4" d="M812.17,142.6a41.36,41.36,0,0,1,7.18.68l-.92,4.61a28.17,28.17,0,0,0-6.84-.82,13.29,13.29,0,0,0-11.06,5.73q-4.32,5.73-4.32,14.46v29.11h-4.8V143.62h4.08l.49,9.51h.34q3.25-5.82,6.94-8.17A16.27,16.27,0,0,1,812.17,142.6Z"/><path class="cls-4" d="M851.14,197.33q-11.31,0-17.71-7.13T827,170.3q0-13.1,6.65-20.4t18.2-7.3A36.6,36.6,0,0,1,865,145l-1.31,4.27A38.47,38.47,0,0,0,851.76,147q-9.7,0-14.7,6t-5,17.25q0,10.68,5,16.72t14,6a34.26,34.26,0,0,0,13.34-2.57v4.46Q859.34,197.33,851.14,197.33Z"/><path class="cls-4" d="M920.9,169.92q0,12.91-6.26,20.16t-17.27,7.25A22.38,22.38,0,0,1,885.15,194a21.42,21.42,0,0,1-8.1-9.61,35,35,0,0,1-2.81-14.46q0-12.91,6.26-20.11t17.18-7.2q10.87,0,17.06,7.3T920.9,169.92Zm-41.63,0q0,10.87,4.78,17T897.57,193q8.73,0,13.51-6.09t4.78-17Q915.86,159,911,153t-13.56-6q-8.73,0-13.46,6T879.28,169.92Zm13.39-34.55q3.54-3.83,7-8.32a57,57,0,0,0,4.73-6.82h6.84v.82a53,53,0,0,1-5.94,6.7q-4.2,4.18-9.24,8.4h-3.39Z"/><path class="cls-4" d="M972.29,196.36V162.15q0-8-3.35-11.57T958.56,147q-9.46,0-13.85,4.78t-4.39,15.5v29.11h-4.8V143.62h4.08l.92,7.23h.29q5.14-8.25,18.29-8.25,17.95,0,18,19.26v34.5Z"/><polyline class="cls-5" points="700.36 81 700.36 59.14 677.35 59.14"/></svg>